<svg xmlns="http://www.w3.org/2000/svg" width="66" height="55" viewBox="0 0 66 55">
  <g id="组_67" data-name="组 67" transform="translate(-265 -1163)">
    <g id="矩形_5" data-name="矩形 5" transform="translate(265 1163)" fill="none" stroke="#fff" stroke-width="3">
      <rect width="66" height="55" rx="11" stroke="none"/>
      <rect x="1.5" y="1.5" width="63" height="52" rx="9.5" fill="none"/>
    </g>
    <g id="Icon_Tune_Sharp" data-name="Icon / Tune / Sharp" transform="translate(280 1173)">
      <rect id="Box" width="36" height="36" fill="none"/>
      <path id="路径_1993" data-name="路径 1993" d="M51,2.333V5.667H61V2.333Zm0-20v3.333H67.667v-3.333ZM67.667,9V5.667H81V2.333H67.667V-1H64.333V9Zm-10-20v3.333H51v3.333h6.667V-1H61V-11ZM81-4.333V-7.667H64.333v3.333ZM71-11h3.333v-3.333H81v-3.333H74.333V-21H71Z" transform="translate(-48 24)" fill="#fff"/>
    </g>
  </g>
</svg>
