<svg xmlns="http://www.w3.org/2000/svg" width="66" height="56" viewBox="0 0 66 56">
  <g id="组_68" data-name="组 68" transform="translate(-265 -1249)">
    <g id="矩形_5" data-name="矩形 5" transform="translate(265 1249)" fill="none" stroke="#fff" stroke-width="3">
      <rect width="66" height="56" rx="11" stroke="none"/>
      <rect x="1.5" y="1.5" width="63" height="53" rx="9.5" fill="none"/>
    </g>
    <path id="联合_11" data-name="联合 11" d="M17767.295,7300.294l-4.729-2.731a1.5,1.5,0,0,1-.549-2.048l.559-.964a1.5,1.5,0,0,1,1.691-.7l.375.1.191-.335,3.869-6.7.25-.433-.432-.25-2.143-1.241a1.5,1.5,0,0,1-.549-2.048l.553-.964a1.5,1.5,0,0,1,2.049-.549l14.627,8.444a1.506,1.506,0,0,1,.553,2.049l-.562.964a1.5,1.5,0,0,1-2.049.549l-2.143-1.236-.432-.25-.25.433-3.871,6.7-.191.335.271.272a1.5,1.5,0,0,1,.246,1.817l-.559.964a1.5,1.5,0,0,1-2.047.553l-4.73-2.731-5.1,8.833Z" transform="translate(-17471.369 -6017.873)" fill="#fff" stroke="#fff" stroke-width="1"/>
  </g>
</svg>
