<svg xmlns="http://www.w3.org/2000/svg" width="66" height="54" viewBox="0 0 66 54">
  <g id="组_65" data-name="组 65" transform="translate(-265 -991)">
    <g id="矩形_617" data-name="矩形 617" transform="translate(265 991)" fill="none" stroke="#aa4242" stroke-width="3">
      <rect width="66" height="54" rx="11" stroke="none"/>
      <rect x="1.5" y="1.5" width="63" height="51" rx="9.5" fill="none"/>
    </g>
    <path id="路径_2022" data-name="路径 2022" d="M112.953,48.621a2.163,2.163,0,0,1,3.133,0,2.216,2.216,0,0,1,.6,2.089l-1.343,6.863H123.7a4.523,4.523,0,0,1,4.178,6.266L122.95,75.179a2.947,2.947,0,0,1-2.686,1.79H106.836a2.993,2.993,0,0,1-2.984-2.984V59.065a2.946,2.946,0,0,1,.9-2.089ZM97.884,76.969A2.993,2.993,0,0,1,94.9,73.985V62.049a2.984,2.984,0,0,1,5.968,0V73.985A2.993,2.993,0,0,1,97.884,76.969Z" transform="translate(186.268 955.259)" fill="#aa4242"/>
  </g>
</svg>
